<svg width="160" height="151" viewBox="0 0 160 151" fill="none" xmlns="http://www.w3.org/2000/svg">
<rect x="39.124" y="146.147" width="123.285" height="2.66084" transform="rotate(-16.8589 39.124 146.147)" fill="black"/>
<rect x="157.034" y="113.196" width="73.6165" height="2.66084" transform="rotate(-106.859 157.034 113.196)" fill="black"/>
<rect x="114.18" y="39.0653" width="31.0431" height="2.66084" transform="rotate(-106.859 114.18 39.0653)" fill="black"/>
<path d="M157.204 109.586C157.076 109.956 156.946 110.324 156.817 110.69C156.317 111.311 155.638 111.767 154.872 111.998L36.8825 147.753C36.1509 147.975 35.3712 147.983 34.6378 147.775C34.3535 147.571 34.0707 147.364 33.7857 147.158L33.9559 146.985L83.7579 96.1186C84.1999 95.6679 84.7493 95.3349 85.3547 95.1505C85.9601 94.9662 86.6019 94.9366 87.2201 95.0646L156.969 109.536L157.204 109.586Z" fill="url(#paint0_linear)"/>
<path d="M132.417 41.3565L72.1861 27.0888C69.6528 26.4887 67.0098 26.5689 64.5224 27.3213C62.035 28.0737 59.7907 29.4719 58.0148 31.3756L15.7092 76.7235C14.7115 77.0274 13.876 77.7173 13.3857 78.642C12.8954 79.5667 12.7903 80.6507 13.0935 81.6564L32.2904 145.004C32.5962 146.009 33.2853 146.853 34.2065 147.35C35.1277 147.847 36.2058 147.957 37.2043 147.655L153.912 112.288C154.91 111.984 155.745 111.294 156.235 110.37C156.725 109.445 156.831 108.361 156.528 107.356L137.331 44.0076C137.025 43.0028 136.336 42.1594 135.415 41.6625C134.493 41.1655 133.415 41.0555 132.417 41.3565ZM156.085 107.49C156.351 108.377 156.258 109.333 155.826 110.149C155.393 110.965 154.657 111.573 153.777 111.842L37.0691 147.209C36.1881 147.475 35.2371 147.377 34.4245 146.939C33.6118 146.5 33.0037 145.757 32.7333 144.87L13.5364 81.5222C13.2687 80.6348 13.3613 79.6782 13.794 78.8623C14.2266 78.0463 14.964 77.4376 15.8443 77.1697L58.15 31.8217C59.9259 29.9181 62.1702 28.5199 64.6576 27.7674C67.145 27.015 69.788 26.9348 72.3213 27.5349L132.552 41.8026C133.433 41.5368 134.384 41.6338 135.197 42.0723C136.01 42.5109 136.618 43.2551 136.888 44.1418L156.085 107.49Z" fill="black"/>
<path d="M85.1024 95.227C84.7132 95.3464 84.3065 95.3981 83.8995 95.38L83.8245 95.3764L83.7649 95.2289C83.7291 95.2626 83.6926 95.2955 83.6558 95.3274L83.6168 95.3609L83.5657 95.3545C83.4588 95.3413 83.3509 95.3224 83.245 95.2985L34.9986 84.4347L20.5564 36.7768C20.2223 35.6699 20.337 34.4767 20.8755 33.4592C21.4141 32.4416 22.3323 31.6828 23.4289 31.3491L100.808 7.90007C101.906 7.56891 103.091 7.69037 104.104 8.23782C105.116 8.78527 105.874 9.71399 106.211 10.8202L120.671 58.539L120.624 58.5887L86.687 94.2555C86.2505 94.7109 85.705 95.0453 85.1024 95.227Z" fill="white"/>
<path d="M85.1022 95.227C84.7015 95.35 84.2826 95.4032 83.8635 95.3846L83.7139 95.3775L83.6887 95.315L83.6236 95.3711L83.5218 95.3585C83.4114 95.3449 83.3 95.3254 83.1906 95.3006L35.0059 84.4589L20.5867 36.8769C20.2446 35.7434 20.3623 34.5216 20.914 33.4796C21.4657 32.4375 22.4064 31.6604 23.5296 31.3186L100.708 7.93061C101.832 7.59139 103.046 7.71565 104.083 8.27613C105.12 8.83661 105.896 9.78753 106.241 10.9203L120.679 58.5629L86.733 94.2272C86.2838 94.6958 85.7224 95.0401 85.1022 95.227ZM84.0313 94.9187C84.9233 94.9077 85.7732 94.5419 86.3957 93.9012L120.153 58.4349L105.795 11.0555C105.487 10.042 104.792 9.19112 103.864 8.68964C102.936 8.18816 101.85 8.07698 100.844 8.3805L23.6659 31.7685C22.6609 32.0743 21.8193 32.7696 21.3256 33.702C20.832 34.6343 20.7267 35.7275 21.0328 36.7417L35.3722 84.0603L38.5056 84.7645L83.2906 94.8423C83.3516 94.8561 83.4128 94.8679 83.4742 94.8777C83.5199 94.8354 83.5643 94.7917 83.6072 94.7465L83.8559 94.4847L84.0313 94.9187Z" fill="black"/>
<path d="M136.425 41.4283L122.956 55.7222L120.636 58.1848L86.6258 94.2823C86.2023 94.7285 85.6722 95.0554 85.0861 95.2319C84.7079 95.3478 84.3124 95.3974 83.9164 95.3786C83.8072 95.3763 83.698 95.3676 83.5896 95.3525C83.485 95.3392 83.3813 95.3205 83.2784 95.2967L38.0938 84.8879L34.7979 84.1296L12.4048 78.9712C12.3437 78.9566 12.2905 78.9181 12.2567 78.8642C12.2229 78.8102 12.2113 78.7451 12.2243 78.683C12.2375 78.6213 12.2743 78.5677 12.3266 78.534C12.379 78.5003 12.4425 78.4893 12.5034 78.5033L34.6381 83.6023L37.934 84.3606L83.377 94.8288C83.5277 94.8634 83.6806 94.8865 83.8345 94.8979C83.8999 94.9031 83.9668 94.9053 84.033 94.9053C84.454 94.9092 84.8705 94.8264 85.2574 94.6618C85.6443 94.4973 85.9935 94.2544 86.284 93.9478L120.477 57.6599L122.797 55.1973L136.084 41.0962C136.105 41.0736 136.13 41.0556 136.159 41.0431C136.187 41.0307 136.217 41.024 136.248 41.0235C136.279 41.023 136.309 41.0287 136.338 41.0402C136.367 41.0517 136.393 41.0689 136.416 41.0907C136.438 41.1125 136.456 41.1385 136.469 41.1673C136.481 41.1961 136.488 41.227 136.489 41.2584C136.49 41.2897 136.485 41.3209 136.474 41.35C136.463 41.3792 136.446 41.4058 136.425 41.4283Z" fill="black"/>
<path d="M40.664 42.9766L34.2803 44.9111C33.7965 45.0577 33.271 44.995 32.8193 44.7369C32.3676 44.4788 32.0268 44.0463 31.8717 43.5347C31.7167 43.023 31.7601 42.4741 31.9926 42.0087C32.225 41.5432 32.6273 41.1994 33.111 41.0528L39.4948 39.1183C39.9785 38.9717 40.504 39.0344 40.9557 39.2925C41.4074 39.5506 41.7483 39.9831 41.9033 40.4947C42.0584 41.0064 42.0149 41.5553 41.7825 42.0207C41.5501 42.4862 41.1477 42.83 40.664 42.9766Z" fill="url(#paint1_linear)"/>
<path d="M50.2311 46.8175L36.1709 51.0783C35.6818 51.2265 35.1389 51.1248 34.6615 50.7954C34.1841 50.4661 33.8114 49.9361 33.6254 49.3221C33.4393 48.7082 33.4551 48.0605 33.6694 47.5215C33.8836 46.9826 34.2787 46.5966 34.7678 46.4484L48.8281 42.1876C49.3171 42.0394 49.86 42.1411 50.3374 42.4705C50.8148 42.7998 51.1875 43.3298 51.3735 43.9437C51.5596 44.5577 51.5438 45.2054 51.3295 45.7444C51.1153 46.2833 50.7202 46.6693 50.2311 46.8175Z" fill="black"/>
<path d="M92.7677 50.778L53.9192 62.5506C53.4428 62.695 52.9119 62.5895 52.4435 62.2575C51.975 61.9255 51.6073 61.394 51.4213 60.78C51.2352 60.166 51.246 59.5199 51.4514 58.9836C51.6567 58.4474 52.0397 58.065 52.5162 57.9206L91.3646 46.148C91.841 46.0037 92.3719 46.1091 92.8404 46.4411C93.3088 46.7732 93.6765 47.3047 93.8626 47.9186C94.0486 48.5326 94.0378 49.1788 93.8325 49.715C93.6271 50.2513 93.2441 50.6336 92.7677 50.778Z" fill="url(#paint2_linear)"/>
<path d="M98.485 55.7854L51.9421 69.8897C51.4627 70.035 50.9537 70.0117 50.527 69.825C50.1003 69.6383 49.7909 69.3034 49.6669 68.8941C49.5429 68.4848 49.6143 68.0346 49.8656 67.6424C50.1169 67.2503 50.5273 66.9483 51.0067 66.8031L97.5497 52.6987C98.029 52.5535 98.5381 52.5767 98.9647 52.7634C99.3914 52.9502 99.7008 53.285 99.8248 53.6943C99.9489 54.1036 99.8774 54.5539 99.6261 54.946C99.3749 55.3382 98.9644 55.6401 98.485 55.7854Z" fill="black"/>
<path d="M100.824 63.502L54.2809 77.6064C53.8015 77.7516 53.2678 77.647 52.7973 77.3156C52.3268 76.9842 51.9579 76.4531 51.7718 75.8391C51.5858 75.2251 51.5978 74.5786 51.8052 74.0417C52.0126 73.5049 52.3984 73.1217 52.8778 72.9764L99.4208 58.8721C99.9001 58.7268 100.434 58.8314 100.904 59.1628C101.375 59.4942 101.744 60.0253 101.93 60.6393C102.116 61.2533 102.104 61.8998 101.896 62.4367C101.689 62.9735 101.303 63.3567 100.824 63.502Z" fill="black"/>
<defs>
<linearGradient id="paint0_linear" x1="148.45" y1="62.3173" x2="51.8889" y2="173.51" gradientUnits="userSpaceOnUse">
<stop stop-color="#6202FF"/>
<stop offset="0.182292" stop-color="#B202FF" stop-opacity="0.873218"/>
<stop offset="0.395833" stop-color="#DC02FF" stop-opacity="0.807292"/>
<stop offset="0.609375" stop-color="#6202FF" stop-opacity="0.711763"/>
<stop offset="0.817708" stop-color="#1855FF" stop-opacity="0.489826"/>
<stop offset="1" stop-color="#00F0FF" stop-opacity="0.354167"/>
</linearGradient>
<linearGradient id="paint1_linear" x1="27.9659" y1="40.8653" x2="41.4674" y2="43.128" gradientUnits="userSpaceOnUse">
<stop stop-color="#6202FF"/>
<stop offset="0.182292" stop-color="#B202FF" stop-opacity="0.873218"/>
<stop offset="0.395833" stop-color="#DC02FF" stop-opacity="0.807292"/>
<stop offset="0.609375" stop-color="#9502FF" stop-opacity="0.711763"/>
<stop offset="0.817708" stop-color="#1855FF" stop-opacity="0.489826"/>
<stop offset="1" stop-color="#00F0FF" stop-opacity="0.354167"/>
</linearGradient>
<linearGradient id="paint2_linear" x1="53.513" y1="37.945" x2="92.8608" y2="49.8985" gradientUnits="userSpaceOnUse">
<stop stop-color="#6202FF"/>
<stop offset="0.182292" stop-color="#B202FF" stop-opacity="0.873218"/>
<stop offset="0.395833" stop-color="#DC02FF" stop-opacity="0.807292"/>
<stop offset="0.609375" stop-color="#9502FF" stop-opacity="0.711763"/>
<stop offset="0.817708" stop-color="#1855FF" stop-opacity="0.489826"/>
<stop offset="1" stop-color="#00F0FF" stop-opacity="0.354167"/>
</linearGradient>
</defs>
</svg>
