<svg width="400" height="439" viewBox="0 0 400 439" fill="none" xmlns="http://www.w3.org/2000/svg">
<ellipse cx="186" cy="132.5" rx="185" ry="51.5" fill="white"/>
<path d="M277.756 89.0203C250.028 84.5991 218.452 82.24 185.567 82.24C155.472 82.24 126.477 84.2129 100.527 87.9328C100.533 87.5347 100.539 87.1366 100.557 86.7384C101.245 63.628 110.953 41.7031 127.607 25.65C144.261 9.59682 166.539 0.688899 189.679 0.830146C212.82 0.971392 234.987 10.1506 251.443 26.4059C267.899 42.6611 277.339 64.7028 277.744 87.8199C277.75 88.224 277.756 88.6222 277.756 89.0203Z" fill="url(#paint0_linear)"/>
<g opacity="0.1">
<path opacity="0.1" d="M200.763 0.797077C188.456 -0.863873 175.936 0.0775049 164.016 3.56019C152.096 7.04288 141.041 12.9892 131.568 21.0137C122.096 29.0382 114.416 38.9618 109.028 50.1414C103.639 61.321 100.662 73.5072 100.289 85.91C100.271 86.3081 100.265 86.7063 100.259 87.1044C107.968 85.9992 115.952 85.0522 124.148 84.2614C125.15 63.5988 133.361 43.9389 147.356 28.6931C161.351 13.4473 180.246 3.57773 200.763 0.797077Z" fill="white"/>
</g>
<path d="M316.523 96.0443C303.759 92.5872 290.813 89.8415 277.744 87.82C256.324 84.5036 234.729 82.4301 213.069 81.6101C204.046 81.2417 194.857 81.0515 185.567 81.0515C178.204 81.0515 170.9 81.1704 163.698 81.4081C142.569 82.0317 121.491 83.8112 100.557 86.7384C85.0609 88.8704 69.7151 91.9785 54.6113 96.0443C19.3952 105.772 0 118.81 0 132.751C0 146.692 19.3952 159.73 54.6113 169.457C79.3775 176.303 109.913 180.968 143.184 183.107C156.917 183.999 171.114 184.45 185.567 184.45C200.067 184.45 214.312 183.993 228.087 183.101C258.366 181.146 286.38 177.099 309.826 171.216C309.951 171.181 310.07 171.151 310.194 171.121C311.777 170.729 313.335 170.319 314.875 169.909C315.428 169.754 315.975 169.606 316.523 169.457C316.554 169.445 316.585 169.435 316.618 169.428C317.141 169.285 317.659 169.136 318.176 168.994C319.211 168.697 320.234 168.406 321.239 168.102C321.287 168.091 321.328 168.079 321.37 168.067C322.244 167.805 323.101 167.544 323.951 167.282C324.647 167.063 325.337 166.849 326.021 166.629C326.521 166.468 327.015 166.308 327.502 166.147C327.859 166.029 328.21 165.916 328.555 165.797C329.025 165.642 329.495 165.482 329.959 165.321C330.155 165.256 330.351 165.191 330.541 165.119C330.987 164.971 331.422 164.816 331.856 164.662C332.326 164.495 332.796 164.323 333.259 164.157C333.646 164.02 334.033 163.877 334.413 163.735C334.734 163.61 335.05 163.491 335.371 163.372C336.245 163.045 337.102 162.707 337.946 162.374C338.369 162.202 338.791 162.035 339.207 161.863C339.617 161.697 340.034 161.524 340.438 161.352C341.104 161.073 341.758 160.793 342.401 160.514C342.71 160.371 343.026 160.235 343.329 160.104C343.561 159.997 343.787 159.896 344.019 159.789C344.185 159.718 344.352 159.64 344.513 159.563C345.113 159.29 345.708 159.011 346.291 158.731C348.527 157.662 350.615 156.568 352.554 155.451C364.717 148.492 371.134 140.773 371.134 132.751C371.134 118.81 351.739 105.772 316.523 96.0443ZM316.202 168.316C291.406 175.168 260.787 179.833 227.427 181.954C213.86 182.816 199.836 183.262 185.567 183.262C171.346 183.262 157.369 182.822 143.844 181.96C110.43 179.845 79.764 175.18 54.9325 168.316C20.2755 158.737 1.18953 146.109 1.18953 132.751C1.19147 131.57 1.33934 130.395 1.6298 129.251C4.66288 117.199 23.3208 105.921 54.9325 97.1853C69.9221 93.1511 85.1504 90.0609 100.527 87.9329C121.587 84.9891 142.793 83.2036 164.048 82.5847C171.138 82.3529 178.311 82.238 185.567 82.24C194.733 82.24 203.797 82.4242 212.706 82.7808C234.493 83.5935 256.213 85.6769 277.756 89.0203C290.712 91.0329 303.547 93.7587 316.202 97.1853C347.808 105.921 366.459 117.193 369.499 129.239C369.794 130.386 369.944 131.566 369.945 132.751C369.945 146.109 350.859 158.737 316.202 168.316Z" fill="#575757"/>
<path d="M370.795 133.291C370.795 141.231 364.246 148.742 352.553 155.451C350.609 156.568 348.515 157.661 346.29 158.731C345.708 159.01 345.113 159.29 344.512 159.563C344.352 159.64 344.185 159.718 344.019 159.789C343.787 159.896 343.561 159.997 343.329 160.104C343.025 160.235 342.71 160.371 342.401 160.514C341.758 160.793 341.104 161.072 340.438 161.352C340.034 161.524 339.617 161.696 339.207 161.863C338.791 162.035 338.368 162.201 337.946 162.374C337.102 162.707 336.245 163.045 335.371 163.372C335.049 163.491 334.734 163.61 334.413 163.735C334.032 163.877 333.646 164.02 333.259 164.157C332.795 164.323 332.325 164.495 331.855 164.662C331.421 164.816 330.987 164.971 330.541 165.119C330.351 165.191 330.155 165.256 329.958 165.321C329.494 165.482 329.025 165.642 328.555 165.797C328.21 165.916 327.859 166.028 327.502 166.147C327.014 166.308 326.52 166.468 326.021 166.629C325.337 166.848 324.647 167.062 323.951 167.282C323.101 167.544 322.244 167.805 321.37 168.067C321.328 168.079 321.286 168.09 321.239 168.102C320.234 168.405 319.211 168.697 318.176 168.994C317.658 169.136 317.141 169.285 316.617 169.427C316.585 169.435 316.553 169.445 316.523 169.457C315.975 169.606 315.428 169.754 314.875 169.909C313.34 170.313 311.776 170.723 310.194 171.121C310.069 171.151 309.95 171.181 309.825 171.216C287.016 176.909 259.032 181.057 228.063 183.059C214.496 183.933 200.353 184.397 185.823 184.397C171.162 184.397 156.899 183.927 143.225 183.036C61.5996 177.717 0.850342 157.465 0.850342 133.291C0.856769 131.821 1.08117 130.359 1.51626 128.953C1.55198 129.054 1.5877 129.15 1.62952 129.251C10.1166 151.523 70.3488 169.523 148.501 173.914C160.474 174.591 172.875 174.942 185.567 174.942C198.313 174.942 210.761 174.586 222.781 173.908C300.868 169.499 361.041 151.493 369.498 129.239C369.641 128.882 369.766 128.526 369.873 128.169C370.476 129.81 370.788 131.543 370.795 133.291Z" fill="#575757"/>
<path d="M54.5213 126.895C44.6228 126.895 34.1025 124.767 34.1025 120.824C34.1025 116.88 44.6228 114.752 54.5213 114.752C64.4198 114.752 74.94 116.88 74.94 120.824C74.94 124.767 64.4198 126.895 54.5213 126.895ZM54.5213 115.941C43.1892 115.941 35.2921 118.514 35.2921 120.824C35.2921 123.133 43.1892 125.707 54.5213 125.707C65.8533 125.707 73.7505 123.133 73.7505 120.824C73.7505 118.514 65.8533 115.941 54.5213 115.941Z" fill="#575757"/>
<path d="M96.7509 154.825C86.8525 154.825 76.3323 152.697 76.3323 148.753C76.3323 144.81 86.8525 142.682 96.7509 142.682C106.65 142.682 117.17 144.81 117.17 148.753C117.17 152.697 106.65 154.825 96.7509 154.825ZM96.7509 143.87C85.4189 143.87 77.5218 146.444 77.5218 148.753C77.5218 151.063 85.4189 153.636 96.7509 153.636C108.083 153.636 115.98 151.063 115.98 148.753C115.98 146.444 108.083 143.87 96.7509 143.87Z" fill="#575757"/>
<path d="M316.22 126.895C306.321 126.895 295.801 124.767 295.801 120.824C295.801 116.88 306.321 114.752 316.22 114.752C326.118 114.752 336.638 116.88 336.638 120.824C336.638 124.767 326.118 126.895 316.22 126.895ZM316.22 115.941C304.888 115.941 296.991 118.514 296.991 120.824C296.991 123.133 304.888 125.707 316.22 125.707C327.552 125.707 335.449 123.133 335.449 120.824C335.449 118.514 327.552 115.941 316.22 115.941Z" fill="#575757"/>
<path d="M273.991 154.825C264.092 154.825 253.572 152.697 253.572 148.753C253.572 144.81 264.092 142.682 273.991 142.682C283.89 142.682 294.41 144.81 294.41 148.753C294.41 152.697 283.89 154.825 273.991 154.825ZM273.991 143.87C262.659 143.87 254.762 146.444 254.762 148.753C254.762 151.063 262.659 153.636 273.991 153.636C285.323 153.636 293.22 151.063 293.22 148.753C293.22 146.444 285.323 143.87 273.991 143.87Z" fill="#575757"/>
<path d="M185.37 167.898C175.472 167.898 164.951 165.77 164.951 161.827C164.951 157.883 175.472 155.755 185.37 155.755C195.269 155.755 205.789 157.883 205.789 161.827C205.789 165.77 195.269 167.898 185.37 167.898ZM185.37 156.944C174.038 156.944 166.141 159.517 166.141 161.827C166.141 164.136 174.038 166.709 185.37 166.709C196.702 166.709 204.599 164.136 204.599 161.827C204.599 159.517 196.702 156.944 185.37 156.944Z" fill="#575757"/>
<path d="M200.423 292.794C214.223 292.794 225.41 281.617 225.41 267.829C225.41 254.041 214.223 242.863 200.423 242.863C186.623 242.863 175.435 254.041 175.435 267.829C175.435 281.617 186.623 292.794 200.423 292.794Z" fill="#575757"/>
<path d="M190.922 284.231L178.761 290.316L182.16 297.098L194.321 291.013L190.922 284.231Z" fill="#575757"/>
<path d="M183.763 296.409C184.484 295.317 182.704 292.873 179.787 290.952C176.87 289.03 173.921 288.358 173.2 289.451C172.479 290.544 174.259 292.988 177.176 294.909C180.092 296.831 183.041 297.502 183.763 296.409Z" fill="#575757"/>
<path d="M209.926 284.231L206.527 291.013L218.688 297.098L222.087 290.316L209.926 284.231Z" fill="#575757"/>
<path d="M223.672 294.909C226.589 292.988 228.369 290.544 227.648 289.451C226.926 288.358 223.977 289.03 221.06 290.952C218.144 292.873 216.364 295.317 217.085 296.409C217.806 297.502 220.755 296.83 223.672 294.909Z" fill="#575757"/>
<path d="M198.673 270.255C203.389 270.255 207.213 266.434 207.213 261.722C207.213 257.01 203.389 253.189 198.673 253.189C193.956 253.189 190.133 257.01 190.133 261.722C190.133 266.434 193.956 270.255 198.673 270.255Z" fill="white"/>
<path d="M200.751 260.086C201.858 258.98 201.852 257.181 200.737 256.067C199.622 254.953 197.821 254.946 196.714 256.052C195.607 257.159 195.613 258.958 196.728 260.072C197.843 261.186 199.644 261.192 200.751 260.086Z" fill="#575757"/>
<path d="M220.136 240.669C220.512 231.426 212.539 223.598 202.328 223.183C192.118 222.769 183.536 229.925 183.16 239.168C182.784 248.411 189.882 250.511 200.093 250.925C210.303 251.34 219.76 249.911 220.136 240.669Z" fill="url(#paint1_linear)"/>
<path d="M234.538 280.902C236.182 279.492 233.87 274.108 229.376 268.878C224.881 263.647 219.905 260.549 218.262 261.959C216.618 263.368 218.929 268.752 223.424 273.983C227.919 279.214 232.894 282.311 234.538 280.902Z" fill="#575757"/>
<path d="M177.491 273.983C181.986 268.752 184.297 263.369 182.654 261.959C181.01 260.549 176.034 263.647 171.539 268.878C167.045 274.109 164.734 279.492 166.377 280.902C168.021 282.311 172.997 279.214 177.491 273.983Z" fill="#575757"/>
<path d="M207.287 277.667C207.557 279.152 207.226 280.682 206.367 281.923C205.508 283.164 204.191 284.012 202.705 284.283C201.22 284.553 199.688 284.222 198.446 283.364C197.204 282.505 196.355 281.189 196.084 279.705L196.082 279.694C195.522 276.603 197.914 275.509 201.008 274.949C204.102 274.389 206.727 274.576 207.287 277.667Z" fill="white"/>
<path d="M158.208 294.385C157.892 294.385 157.59 294.26 157.367 294.037C157.144 293.814 157.018 293.512 157.018 293.197V223.076C157.018 222.761 157.144 222.458 157.367 222.236C157.59 222.013 157.892 221.887 158.208 221.887C158.523 221.887 158.826 222.013 159.049 222.236C159.272 222.458 159.397 222.761 159.397 223.076V293.197C159.397 293.512 159.272 293.814 159.049 294.037C158.826 294.26 158.523 294.385 158.208 294.385Z" fill="#CCCCCC"/>
<path d="M140.365 357.375C140.05 357.375 139.747 357.25 139.524 357.027C139.301 356.804 139.176 356.502 139.176 356.187V305.082C139.176 304.767 139.301 304.464 139.524 304.241C139.747 304.019 140.05 303.893 140.365 303.893C140.681 303.893 140.983 304.019 141.206 304.241C141.429 304.464 141.555 304.767 141.555 305.082V356.187C141.555 356.502 141.429 356.804 141.206 357.027C140.983 357.25 140.681 357.375 140.365 357.375Z" fill="#CCCCCC"/>
<path d="M186.161 315.184C185.845 315.184 185.543 315.059 185.32 314.836C185.097 314.613 184.971 314.311 184.971 313.995V243.875C184.971 243.559 185.097 243.257 185.32 243.034C185.543 242.811 185.845 242.686 186.161 242.686C186.476 242.686 186.779 242.811 187.002 243.034C187.225 243.257 187.35 243.559 187.35 243.875V313.995C187.35 314.311 187.225 314.613 187.002 314.836C186.779 315.059 186.476 315.184 186.161 315.184Z" fill="#CCCCCC"/>
<path d="M168.914 365.695C168.598 365.695 168.296 365.569 168.073 365.347C167.849 365.124 167.724 364.821 167.724 364.506V335.982C167.724 335.667 167.849 335.365 168.073 335.142C168.296 334.919 168.598 334.794 168.914 334.794C169.229 334.794 169.532 334.919 169.755 335.142C169.978 335.365 170.103 335.667 170.103 335.982V364.506C170.103 364.821 169.978 365.124 169.755 365.347C169.532 365.569 169.229 365.695 168.914 365.695Z" fill="#CCCCCC"/>
<path d="M193.298 219.51C192.982 219.51 192.68 219.385 192.457 219.162C192.234 218.939 192.108 218.637 192.108 218.322V189.798C192.108 189.483 192.233 189.181 192.457 188.958C192.68 188.735 192.982 188.61 193.298 188.61C193.613 188.61 193.916 188.735 194.139 188.958C194.362 189.181 194.487 189.483 194.487 189.798V218.322C194.487 218.637 194.362 218.939 194.139 219.162C193.916 219.385 193.613 219.51 193.298 219.51Z" fill="#CCCCCC"/>
<path d="M133.823 231.99C133.507 231.99 133.205 231.864 132.982 231.641C132.759 231.419 132.633 231.116 132.633 230.801V202.277C132.633 201.962 132.759 201.66 132.982 201.437C133.205 201.214 133.507 201.089 133.823 201.089C134.138 201.089 134.441 201.214 134.664 201.437C134.887 201.66 135.012 201.962 135.012 202.277V230.801C135.012 231.116 134.887 231.419 134.664 231.641C134.441 231.864 134.138 231.99 133.823 231.99Z" fill="#CCCCCC"/>
<path d="M237.313 234.961C236.997 234.961 236.695 234.836 236.472 234.613C236.249 234.39 236.123 234.088 236.123 233.772V205.249C236.123 204.933 236.249 204.631 236.472 204.408C236.695 204.185 236.997 204.06 237.313 204.06C237.628 204.06 237.931 204.185 238.154 204.408C238.377 204.631 238.502 204.933 238.502 205.249V233.772C238.502 234.088 238.377 234.39 238.154 234.613C237.931 234.836 237.628 234.961 237.313 234.961Z" fill="#CCCCCC"/>
<path d="M234.933 324.098C234.617 324.098 234.315 323.972 234.092 323.749C233.869 323.527 233.743 323.224 233.743 322.909V288.443C233.743 288.128 233.869 287.825 234.092 287.602C234.315 287.38 234.617 287.254 234.933 287.254C235.248 287.254 235.551 287.38 235.774 287.602C235.997 287.825 236.122 288.128 236.122 288.443V322.909C236.122 323.224 235.997 323.527 235.774 323.749C235.551 323.972 235.248 324.098 234.933 324.098Z" fill="#CCCCCC"/>
<path d="M211.141 354.404C210.826 354.404 210.523 354.279 210.3 354.056C210.077 353.833 209.952 353.531 209.952 353.216V302.111C209.952 301.795 210.077 301.493 210.3 301.27C210.523 301.047 210.826 300.922 211.141 300.922C211.457 300.922 211.759 301.047 211.983 301.27C212.206 301.493 212.331 301.795 212.331 302.111V353.216C212.331 353.531 212.206 353.833 211.983 354.056C211.759 354.279 211.457 354.404 211.141 354.404Z" fill="#CCCCCC"/>
<path d="M215.9 267.05C215.585 267.05 215.282 266.925 215.059 266.702C214.836 266.479 214.711 266.177 214.711 265.862V195.741C214.711 195.426 214.836 195.123 215.059 194.9C215.282 194.677 215.585 194.552 215.9 194.552C216.216 194.552 216.518 194.677 216.741 194.9C216.964 195.123 217.09 195.426 217.09 195.741V265.862C217.09 266.177 216.964 266.479 216.741 266.702C216.518 266.925 216.216 267.05 215.9 267.05Z" fill="#CCCCCC"/>
<path d="M361.732 416.263C363.435 414.839 361.134 409.292 356.593 403.873C352.052 398.454 346.991 395.216 345.289 396.64C343.586 398.065 345.887 403.612 350.428 409.031C354.969 414.449 360.03 417.687 361.732 416.263Z" fill="#575757"/>
<path d="M350.566 410.101C355.04 396.692 347.787 382.198 334.366 377.729C320.945 373.259 306.439 380.506 301.965 393.915C297.492 407.324 304.745 421.817 318.166 426.287C331.587 430.757 346.093 423.51 350.566 410.101Z" fill="#575757"/>
<path d="M337.108 422.093H329.327V436.023H337.108V422.093Z" fill="#575757"/>
<path d="M321.543 422.093H313.761V436.023H321.543V422.093Z" fill="#575757"/>
<path d="M330.624 438.615C334.205 438.615 337.109 437.527 337.109 436.186C337.109 434.844 334.205 433.756 330.624 433.756C327.043 433.756 324.139 434.844 324.139 436.186C324.139 437.527 327.043 438.615 330.624 438.615Z" fill="#575757"/>
<path d="M315.06 438.291C318.641 438.291 321.545 437.203 321.545 435.861C321.545 434.519 318.641 433.432 315.06 433.432C311.479 433.432 308.575 434.519 308.575 435.861C308.575 437.203 311.479 438.291 315.06 438.291Z" fill="#575757"/>
<path d="M318.224 369.837C320.511 360.634 330.607 355.219 340.774 357.741C350.941 360.263 357.329 369.769 355.042 378.972C352.754 388.175 345.166 388.204 334.999 385.682C324.832 383.16 315.936 379.041 318.224 369.837Z" fill="#CCCCCC"/>
<path d="M308.987 395.617C309.938 393.612 305.529 389.532 299.138 386.503C292.747 383.475 286.794 382.645 285.843 384.649C284.891 386.654 289.301 390.734 295.692 393.763C302.083 396.791 308.035 397.621 308.987 395.617Z" fill="#575757"/>
<path d="M322.438 405.141C327.154 405.141 330.978 401.32 330.978 396.608C330.978 391.896 327.154 388.075 322.438 388.075C317.721 388.075 313.898 391.896 313.898 396.608C313.898 401.32 317.721 405.141 322.438 405.141Z" fill="white"/>
<path d="M318.926 396.393C320.498 396.393 321.773 395.12 321.773 393.549C321.773 391.978 320.498 390.705 318.926 390.705C317.354 390.705 316.08 391.978 316.08 393.549C316.08 395.12 317.354 396.393 318.926 396.393Z" fill="#575757"/>
<path d="M322.363 417.988C324.334 417.988 325.932 416.392 325.932 414.423C325.932 412.453 324.334 410.857 322.363 410.857C320.392 410.857 318.794 412.453 318.794 414.423C318.794 416.392 320.392 417.988 322.363 417.988Z" fill="white"/>
<path d="M399.406 438.787H259.041C258.883 438.787 258.732 438.724 258.62 438.613C258.509 438.501 258.446 438.35 258.446 438.193C258.446 438.035 258.509 437.884 258.62 437.772C258.732 437.661 258.883 437.598 259.041 437.598H399.406C399.563 437.598 399.715 437.661 399.826 437.772C399.938 437.884 400 438.035 400 438.193C400 438.35 399.938 438.501 399.826 438.613C399.715 438.724 399.563 438.787 399.406 438.787Z" fill="#575757"/>
<defs>
<linearGradient id="paint0_linear" x1="154" y1="-37.4999" x2="315.5" y2="122" gradientUnits="userSpaceOnUse">
<stop offset="0.114583" stop-color="#6202FF"/>
<stop offset="0.395833" stop-color="#DC02FF" stop-opacity="0.807292"/>
<stop offset="0.541667" stop-color="#B002FF" stop-opacity="0.876415"/>
<stop offset="0.833333" stop-color="#1855FF" stop-opacity="0.489826"/>
<stop offset="1" stop-color="#00D1FF" stop-opacity="0.354167"/>
</linearGradient>
<linearGradient id="paint1_linear" x1="199.394" y1="223.03" x2="218.182" y2="250.908" gradientUnits="userSpaceOnUse">
<stop stop-color="#6202FF"/>
<stop offset="0.333333" stop-color="#BB00DA" stop-opacity="0.807292"/>
<stop offset="0.572917" stop-color="#8D18FF" stop-opacity="0.767191"/>
<stop offset="0.770833" stop-color="#1855FF" stop-opacity="0.489826"/>
<stop offset="1" stop-color="#00D1FF" stop-opacity="0.354167"/>
</linearGradient>
</defs>
</svg>
