<svg width="295" height="60" viewBox="0 0 295 60" fill="none" xmlns="http://www.w3.org/2000/svg">
<path d="M0.20875 2H16.5288C20.9554 2 24.6354 3.22666 27.5688 5.68C30.5021 8.13333 31.9688 11.6267 31.9688 16.16C31.9688 18.2933 31.6221 20.32 30.9288 22.24C30.2354 24.16 28.8221 25.84 26.6888 27.28L26.6088 27.44V27.52C28.9554 28.5867 30.9021 30.2933 32.4488 32.64C34.0488 34.9867 34.8488 37.9733 34.8488 41.6C34.8488 44.3733 34.2888 47.0133 33.1688 49.52C32.0488 51.9733 30.2088 54 27.6488 55.6C25.0888 57.2 21.7821 58 17.7288 58H0.20875V2ZM12.8488 24.96C15.8888 24.96 18.1288 24.4 19.5688 23.28C21.0088 22.16 21.7288 20.24 21.7288 17.52C21.7288 15.0133 21.0621 13.28 19.7288 12.32C18.3954 11.3067 16.3688 10.8 13.6488 10.8H9.00875V24.96H12.8488ZM13.8888 49.92C16.3421 49.92 18.3154 49.7333 19.8088 49.36C21.3554 48.9333 22.5554 48.1067 23.4088 46.88C24.3154 45.6533 24.7688 43.84 24.7688 41.44C24.7688 38.4 23.8354 36.32 21.9688 35.2C20.1021 34.0267 17.6488 33.44 14.6088 33.44H9.00875V49.92H13.8888ZM76.5931 43.2C76.5931 48.5867 74.9398 52.56 71.6331 55.12C68.3798 57.6267 64.4598 58.88 59.8731 58.88C56.9931 58.88 54.2731 58.3733 51.7131 57.36C49.1531 56.2933 47.0465 54.5867 45.3931 52.24C43.7931 49.8933 42.9931 46.88 42.9931 43.2V17.44C42.9931 11.9467 44.4865 7.78666 47.4731 4.96C50.5131 2.13333 54.6731 0.719998 59.9531 0.719998C65.2331 0.719998 69.3131 2.21333 72.1931 5.2C75.1265 8.18666 76.5931 12.2933 76.5931 17.52V43.2ZM67.7931 20.4C67.7931 18.16 67.6065 16.32 67.2331 14.88C66.8598 13.44 66.0865 12.32 64.9131 11.52C63.7398 10.6667 62.0331 10.24 59.7931 10.24C57.5531 10.24 55.8465 10.64 54.6731 11.44C53.4998 12.24 52.7265 13.36 52.3531 14.8C51.9798 16.1867 51.7931 18.0267 51.7931 20.32V41.68C51.7931 44.24 52.4331 46.2667 53.7131 47.76C55.0465 49.2 57.0731 49.92 59.7931 49.92C62.2998 49.92 64.2465 49.1467 65.6331 47.6C67.0731 46.0533 67.7931 44.0267 67.7931 41.52V20.4ZM119.718 43.2C119.718 48.5867 118.065 52.56 114.758 55.12C111.505 57.6267 107.585 58.88 102.998 58.88C100.118 58.88 97.3981 58.3733 94.8381 57.36C92.2781 56.2933 90.1715 54.5867 88.5181 52.24C86.9181 49.8933 86.1181 46.88 86.1181 43.2V17.44C86.1181 11.9467 87.6115 7.78666 90.5981 4.96C93.6381 2.13333 97.7981 0.719998 103.078 0.719998C108.358 0.719998 112.438 2.21333 115.318 5.2C118.251 8.18666 119.718 12.2933 119.718 17.52V43.2ZM110.918 20.4C110.918 18.16 110.731 16.32 110.358 14.88C109.985 13.44 109.211 12.32 108.038 11.52C106.865 10.6667 105.158 10.24 102.918 10.24C100.678 10.24 98.9715 10.64 97.7981 11.44C96.6248 12.24 95.8515 13.36 95.4781 14.8C95.1048 16.1867 94.9181 18.0267 94.9181 20.32V41.68C94.9181 44.24 95.5581 46.2667 96.8381 47.76C98.1715 49.2 100.198 49.92 102.918 49.92C105.425 49.92 107.371 49.1467 108.758 47.6C110.198 46.0533 110.918 44.0267 110.918 41.52V20.4ZM141.304 35.76L140.744 36.56V58H131.304V1.92H140.744V21.2L153.704 1.92H164.264L146.504 27.92L167.384 58H156.424L141.304 35.76ZM179.963 42.4C180.229 44.7467 181.189 46.64 182.843 48.08C184.496 49.52 186.656 50.24 189.323 50.24C191.563 50.24 193.376 49.8667 194.763 49.12C196.203 48.3733 197.243 47.4667 197.883 46.4C198.523 45.3333 198.843 44.2933 198.843 43.28C198.843 40.9333 198.256 38.9867 197.083 37.44C195.963 35.84 194.549 34.5867 192.843 33.68C191.189 32.72 188.923 31.6267 186.043 30.4C182.896 29.0667 180.389 27.8667 178.523 26.8C176.709 25.68 175.136 24.1867 173.803 22.32C172.523 20.4 171.883 17.9733 171.883 15.04C171.883 12.6933 172.549 10.48 173.883 8.4C175.216 6.26667 177.243 4.53333 179.963 3.2C182.683 1.86666 186.016 1.2 189.963 1.2C192.576 1.2 194.736 1.38666 196.443 1.76C198.149 2.13333 199.883 2.74666 201.643 3.6L198.843 11.92C196.923 11.28 195.349 10.8267 194.123 10.56C192.949 10.2933 191.589 10.16 190.043 10.16C187.003 10.16 184.763 10.6933 183.323 11.76C181.883 12.8267 181.243 14.1867 181.403 15.84C181.563 17.1733 182.363 18.32 183.803 19.28C185.296 20.24 187.589 21.4133 190.683 22.8C194.309 24.4 197.323 25.92 199.723 27.36C202.123 28.8 204.176 30.7733 205.883 33.28C207.643 35.7867 208.523 38.8533 208.523 42.48C208.523 47.2267 206.949 51.1467 203.803 54.24C200.656 57.3333 195.856 58.88 189.403 58.88C185.456 58.88 182.069 58.16 179.243 56.72C176.469 55.2267 174.336 53.3333 172.842 51.04C171.403 48.6933 170.629 46.2667 170.523 43.76L179.963 42.4ZM236.966 52.8C238.726 52.5867 240.166 51.92 241.286 50.8C242.406 49.68 242.966 47.7067 242.966 44.88V40.4C240.3 41.7333 237.5 42.4 234.566 42.4C230.94 42.4 227.74 41.7067 224.966 40.32C222.193 38.88 220.033 36.8533 218.486 34.24C216.993 31.5733 216.246 28.48 216.246 24.96V2H225.046V24.16C225.046 27.4667 225.846 29.8933 227.446 31.44C229.046 32.9867 231.42 33.76 234.566 33.76C236.326 33.76 237.766 33.5733 238.886 33.2C240.06 32.8267 240.86 32.4533 241.286 32.08C241.766 31.7067 242.326 31.2 242.966 30.56V2H251.766V45.52C251.766 49.7333 250.86 53.0133 249.046 55.36C247.233 57.7067 244.14 59.0933 239.766 59.52L236.966 52.8ZM265.588 42.4C265.854 44.7467 266.814 46.64 268.468 48.08C270.121 49.52 272.281 50.24 274.948 50.24C277.188 50.24 279.001 49.8667 280.388 49.12C281.828 48.3733 282.868 47.4667 283.508 46.4C284.148 45.3333 284.468 44.2933 284.468 43.28C284.468 40.9333 283.881 38.9867 282.708 37.44C281.588 35.84 280.174 34.5867 278.468 33.68C276.814 32.72 274.548 31.6267 271.668 30.4C268.521 29.0667 266.014 27.8667 264.148 26.8C262.334 25.68 260.761 24.1867 259.428 22.32C258.148 20.4 257.508 17.9733 257.508 15.04C257.508 12.6933 258.174 10.48 259.508 8.4C260.841 6.26667 262.868 4.53333 265.588 3.2C268.308 1.86666 271.641 1.2 275.588 1.2C278.201 1.2 280.361 1.38666 282.068 1.76C283.774 2.13333 285.508 2.74666 287.268 3.6L284.468 11.92C282.548 11.28 280.974 10.8267 279.748 10.56C278.574 10.2933 277.214 10.16 275.668 10.16C272.628 10.16 270.388 10.6933 268.948 11.76C267.508 12.8267 266.868 14.1867 267.028 15.84C267.188 17.1733 267.988 18.32 269.428 19.28C270.921 20.24 273.214 21.4133 276.308 22.8C279.934 24.4 282.948 25.92 285.348 27.36C287.748 28.8 289.801 30.7733 291.508 33.28C293.268 35.7867 294.148 38.8533 294.148 42.48C294.148 47.2267 292.574 51.1467 289.428 54.24C286.281 57.3333 281.481 58.88 275.028 58.88C271.081 58.88 267.694 58.16 264.868 56.72C262.094 55.2267 259.961 53.3333 258.467 51.04C257.028 48.6933 256.254 46.2667 256.148 43.76L265.588 42.4Z" fill="url(#paint0_linear)"/>
<defs>
<linearGradient id="paint0_linear" x1="42.2174" y1="-11" x2="242.613" y2="100.542" gradientUnits="userSpaceOnUse">
<stop stop-color="white"/>
<stop offset="0.192708" stop-color="#B181FF"/>
<stop offset="0.341364" stop-color="#6202FF"/>
<stop offset="0.654862" stop-color="#8002FD" stop-opacity="0.963583"/>
<stop offset="1" stop-color="#FF02F5" stop-opacity="0.807292"/>
</linearGradient>
</defs>
</svg>
