<svg width="158" height="143" viewBox="0 0 158 143" fill="none" xmlns="http://www.w3.org/2000/svg">
<path fill-rule="evenodd" clip-rule="evenodd" d="M111.588 30.983L133 35.5L132.587 35.6209C132.994 35.8668 133.315 36.258 133.465 36.7487L153.505 102.411C153.827 103.468 153.232 104.585 152.176 104.908L33.9845 140.98C32.928 141.302 31.8102 140.707 31.4877 139.651L11.4475 73.9884C11.3039 73.5178 11.3423 73.035 11.5225 72.6157L11.1616 72.7328L26.6616 56.2328L29.558 66.37L114.882 40.3289L111.588 30.983Z" fill="white"/>
<rect x="36.7858" y="139.501" width="123.285" height="2.66084" transform="rotate(-16.8589 36.7858 139.501)" fill="white"/>
<rect x="154.696" y="106.55" width="73.6165" height="2.66084" transform="rotate(-106.859 154.696 106.55)" fill="white"/>
<rect x="111.842" y="32.4191" width="31.0431" height="2.66084" transform="rotate(-106.859 111.842 32.4191)" fill="white"/>
<path d="M153.62 103.317C153.495 103.686 153.366 104.054 153.24 104.419C152.746 105.038 152.075 105.492 151.316 105.72L34.517 141.115C33.7928 141.335 33.0204 141.341 32.2932 141.131C32.0109 140.926 31.7302 140.718 31.4472 140.511L31.6154 140.34L80.8148 89.6555C81.2515 89.2064 81.7949 88.8752 82.3942 88.6927C82.9935 88.5103 83.6292 88.4825 84.2421 88.612L153.387 103.266L153.62 103.317Z" fill="url(#paint0_linear)"/>
<path d="M130.079 34.7102L69.8477 20.4425C67.3144 19.8424 64.6714 19.9225 62.184 20.675C59.6966 21.4274 57.4524 22.8256 55.6764 24.7292L13.3708 70.0772C12.3732 70.3811 11.5376 71.071 11.0473 71.9957C10.557 72.9203 10.4519 74.0043 10.7551 75.01L29.9521 138.358C30.2579 139.363 30.947 140.207 31.8682 140.704C32.7894 141.201 33.8675 141.31 34.8659 141.009L151.574 105.642C152.571 105.338 153.407 104.648 153.897 103.723C154.387 102.799 154.492 101.715 154.189 100.709L134.992 37.3612C134.686 36.3564 133.997 35.5131 133.076 35.0161C132.155 34.5192 131.077 34.4091 130.079 34.7102ZM153.746 100.843C154.013 101.731 153.92 102.687 153.487 103.503C153.055 104.318 152.318 104.927 151.439 105.196L34.7307 140.563C33.8497 140.828 32.8988 140.731 32.0861 140.293C31.2734 139.854 30.6653 139.11 30.395 138.224L11.198 74.8758C10.9303 73.9884 11.0229 73.0319 11.4556 72.2159C11.8882 71.4 12.6256 70.7913 13.506 70.5233L55.8116 25.1753C57.5876 23.2717 59.8318 21.8735 62.3192 21.1211C64.8066 20.3687 67.4496 20.2885 69.9829 20.8886L130.214 35.1563C131.095 34.8905 132.046 34.9875 132.859 35.426C133.672 35.8645 134.28 36.6088 134.55 37.4955L153.746 100.843Z" fill="black"/>
<path d="M82.7641 88.5807C82.375 88.7001 81.9682 88.7519 81.5613 88.7338L81.4863 88.7302L81.4266 88.5826C81.3908 88.6163 81.3544 88.6493 81.3175 88.6811L81.2786 88.7147L81.2274 88.7083C81.1205 88.6951 81.0126 88.6762 80.9068 88.6522L32.6603 77.7885L18.2181 30.1306C17.884 29.0236 17.9988 27.8305 18.5373 26.8129C19.0758 25.7954 19.9941 25.0365 21.0906 24.7029L98.4702 1.25383C99.5675 0.922665 100.753 1.04413 101.765 1.59158C102.778 2.13903 103.536 3.06775 103.872 4.17399L118.333 51.8928L118.286 51.9424L84.3487 87.6093C83.9123 88.0646 83.3667 88.3991 82.7641 88.5807Z" fill="white"/>
<path d="M82.7639 88.5808C82.3632 88.7037 81.9444 88.757 81.5253 88.7384L81.3757 88.7313L81.3504 88.6688L81.2854 88.7249L81.1836 88.7123C81.0731 88.6986 80.9617 88.6791 80.8524 88.6543L32.6676 77.8126L18.2484 30.2307C17.9063 29.0971 18.024 27.8753 18.5757 26.8333C19.1275 25.7913 20.0681 25.0141 21.1914 24.6724L98.3695 1.28436C99.4935 0.945149 100.707 1.06941 101.745 1.62989C102.782 2.19037 103.558 3.14129 103.903 4.27405L118.34 51.9167L84.3947 87.581C83.9456 88.0496 83.3841 88.3938 82.7639 88.5808ZM81.693 88.2725C82.5851 88.2614 83.435 87.8957 84.0574 87.255L117.814 51.7887L103.457 4.40924C103.148 3.39571 102.454 2.54488 101.526 2.0434C100.598 1.54192 99.5115 1.43074 98.5058 1.73426L21.3277 25.1222C20.3227 25.428 19.481 26.1234 18.9874 27.0557C18.4938 27.9881 18.3884 29.0813 18.6946 30.0955L33.0339 77.4141L36.1673 78.1183L80.9523 88.196C81.0133 88.2098 81.0745 88.2216 81.136 88.2314C81.1817 88.1892 81.226 88.1454 81.2689 88.1002L81.5176 87.8385L81.693 88.2725Z" fill="black"/>
<path d="M134.086 34.782L120.617 49.0759L118.297 51.5385L84.2871 87.636C83.8637 88.0822 83.3336 88.4091 82.7475 88.5856C82.3693 88.7015 81.9738 88.7511 81.5778 88.7323C81.4685 88.73 81.3594 88.7213 81.251 88.7062C81.1464 88.6929 81.0427 88.6742 80.9398 88.6504L35.7552 78.2416L32.4593 77.4833L10.0662 72.3249C10.0051 72.3103 9.9519 72.2718 9.9181 72.2179C9.88431 72.1639 9.87265 72.0988 9.88566 72.0367C9.89887 71.975 9.93569 71.9214 9.98801 71.8877C10.0403 71.854 10.1039 71.843 10.1648 71.857L32.2995 76.956L35.5954 77.7143L81.0383 88.1825C81.189 88.2171 81.342 88.2402 81.4958 88.2516C81.5613 88.2568 81.6282 88.259 81.6944 88.259C82.1154 88.2629 82.5319 88.1801 82.9188 88.0155C83.3056 87.851 83.6549 87.6081 83.9454 87.3015L118.138 51.0136L120.458 48.551L133.745 34.4499C133.766 34.4273 133.792 34.4093 133.82 34.3968C133.848 34.3844 133.878 34.3777 133.909 34.3772C133.94 34.3767 133.971 34.3824 134 34.3939C134.028 34.4054 134.055 34.4226 134.077 34.4444C134.099 34.4662 134.117 34.4922 134.13 34.521C134.143 34.5498 134.15 34.5807 134.15 34.6121C134.151 34.6434 134.146 34.6746 134.135 34.7037C134.124 34.7329 134.107 34.7595 134.086 34.782Z" fill="black"/>
<path d="M38.3257 36.3303L31.942 38.2648C31.4583 38.4114 30.9327 38.3487 30.4811 38.0906C30.0294 37.8325 29.6885 37.4 29.5335 36.8884C29.3784 36.3767 29.4219 35.8278 29.6543 35.3624C29.8867 34.8969 30.289 34.5531 30.7728 34.4065L37.1565 32.472C37.6403 32.3254 38.1658 32.3881 38.6175 32.6462C39.0691 32.9043 39.41 33.3368 39.565 33.8484C39.7201 34.3601 39.6766 34.909 39.4442 35.3744C39.2118 35.8399 38.8095 36.1837 38.3257 36.3303Z" fill="url(#paint1_linear)"/>
<path d="M47.8929 40.1712L33.8326 44.432C33.3435 44.5802 32.8006 44.4784 32.3232 44.1491C31.8459 43.8197 31.4732 43.2898 31.2871 42.6758C31.101 42.0618 31.1169 41.4142 31.3311 40.8752C31.5454 40.3363 31.9405 39.9502 32.4295 39.802L46.4898 35.5412C46.9788 35.393 47.5218 35.4948 47.9991 35.8242C48.4765 36.1535 48.8492 36.6835 49.0353 37.2974C49.2213 37.9114 49.2055 38.5591 48.9913 39.098C48.777 39.637 48.3819 40.023 47.8929 40.1712Z" fill="black"/>
<path d="M90.429 44.1317L51.5806 55.9043C51.1042 56.0487 50.5733 55.9432 50.1049 55.6112C49.6364 55.2791 49.2687 54.7477 49.0826 54.1337C48.8966 53.5197 48.9074 52.8736 49.1127 52.3373C49.3181 51.8011 49.7011 51.4187 50.1776 51.2743L89.026 39.5017C89.5024 39.3574 90.0333 39.4628 90.5017 39.7948C90.9702 40.1269 91.3379 40.6584 91.524 41.2723C91.71 41.8863 91.6992 42.5325 91.4938 43.0687C91.2885 43.605 90.9055 43.9873 90.429 44.1317Z" fill="url(#paint2_linear)"/>
<path d="M96.1468 49.139L49.6038 63.2434C49.1245 63.3886 48.6154 63.3654 48.1888 63.1787C47.7621 62.9919 47.4527 62.6571 47.3286 62.2478C47.2046 61.8385 47.2761 61.3882 47.5273 60.9961C47.7786 60.6039 48.1891 60.302 48.6685 60.1567L95.2114 46.0524C95.6908 45.9071 96.1998 45.9304 96.6265 46.1171C97.0532 46.3038 97.3625 46.6387 97.4866 47.048C97.6106 47.4573 97.5391 47.9075 97.2879 48.2997C97.0366 48.6918 96.6262 48.9938 96.1468 49.139Z" fill="black"/>
<path d="M98.4852 56.8557L51.9422 70.96C51.4629 71.1053 50.9292 71.0007 50.4587 70.6693C49.9881 70.3379 49.6193 69.8068 49.4332 69.1928C49.2472 68.5788 49.2592 67.9323 49.4666 67.3954C49.674 66.8586 50.0598 66.4753 50.5392 66.3301L97.0821 52.2257C97.5615 52.0805 98.0952 52.185 98.5657 52.5165C99.0362 52.8479 99.4051 53.379 99.5912 53.993C99.7772 54.6069 99.7652 55.2535 99.5578 55.7903C99.3504 56.3272 98.9646 56.7104 98.4852 56.8557Z" fill="black"/>
<defs>
<linearGradient id="paint0_linear" x1="144.815" y1="56.064" x2="48.4521" y2="166.011" gradientUnits="userSpaceOnUse">
<stop stop-color="#6202FF"/>
<stop offset="0.182292" stop-color="#B202FF" stop-opacity="0.873218"/>
<stop offset="0.395833" stop-color="#DC02FF" stop-opacity="0.807292"/>
<stop offset="0.609375" stop-color="#6202FF" stop-opacity="0.711763"/>
<stop offset="0.817708" stop-color="#1855FF" stop-opacity="0.489826"/>
<stop offset="1" stop-color="#00F0FF" stop-opacity="0.354167"/>
</linearGradient>
<linearGradient id="paint1_linear" x1="25.6277" y1="34.219" x2="39.1292" y2="36.4817" gradientUnits="userSpaceOnUse">
<stop stop-color="#6202FF"/>
<stop offset="0.182292" stop-color="#B202FF" stop-opacity="0.873218"/>
<stop offset="0.395833" stop-color="#DC02FF" stop-opacity="0.807292"/>
<stop offset="0.609375" stop-color="#9502FF" stop-opacity="0.711763"/>
<stop offset="0.817708" stop-color="#1855FF" stop-opacity="0.489826"/>
<stop offset="1" stop-color="#00F0FF" stop-opacity="0.354167"/>
</linearGradient>
<linearGradient id="paint2_linear" x1="51.1743" y1="31.2987" x2="90.5222" y2="43.2522" gradientUnits="userSpaceOnUse">
<stop stop-color="#6202FF"/>
<stop offset="0.182292" stop-color="#B202FF" stop-opacity="0.873218"/>
<stop offset="0.395833" stop-color="#DC02FF" stop-opacity="0.807292"/>
<stop offset="0.609375" stop-color="#9502FF" stop-opacity="0.711763"/>
<stop offset="0.817708" stop-color="#1855FF" stop-opacity="0.489826"/>
<stop offset="1" stop-color="#00F0FF" stop-opacity="0.354167"/>
</linearGradient>
</defs>
</svg>
