<svg width="111" height="23" viewBox="0 0 111 23" fill="none" xmlns="http://www.w3.org/2000/svg">
<path d="M0.34 0.999999H6.46C8.12 0.999999 9.5 1.46 10.6 2.38C11.7 3.3 12.25 4.61 12.25 6.31C12.25 7.11 12.12 7.87 11.86 8.59C11.6 9.31 11.07 9.94 10.27 10.48L10.24 10.54V10.57C11.12 10.97 11.85 11.61 12.43 12.49C13.03 13.37 13.33 14.49 13.33 15.85C13.33 16.89 13.12 17.88 12.7 18.82C12.28 19.74 11.59 20.5 10.63 21.1C9.67 21.7 8.43 22 6.91 22H0.34V0.999999ZM5.08 9.61C6.22 9.61 7.06 9.4 7.6 8.98C8.14 8.56 8.41 7.84 8.41 6.82C8.41 5.88 8.16 5.23 7.66 4.87C7.16 4.49 6.4 4.3 5.38 4.3H3.64V9.61H5.08ZM5.47 18.97C6.39 18.97 7.13 18.9 7.69 18.76C8.27 18.6 8.72 18.29 9.04 17.83C9.38 17.37 9.55 16.69 9.55 15.79C9.55 14.65 9.2 13.87 8.5 13.45C7.8 13.01 6.88 12.79 5.74 12.79H3.64V18.97H5.47ZM28.9841 16.45C28.9841 18.47 28.3641 19.96 27.1241 20.92C25.9041 21.86 24.4341 22.33 22.7141 22.33C21.6341 22.33 20.6141 22.14 19.6541 21.76C18.6941 21.36 17.9041 20.72 17.2841 19.84C16.6841 18.96 16.3841 17.83 16.3841 16.45V6.79C16.3841 4.73 16.9441 3.17 18.0641 2.11C19.2041 1.05 20.7641 0.519999 22.7441 0.519999C24.7241 0.519999 26.2541 1.08 27.3341 2.2C28.4341 3.32 28.9841 4.86 28.9841 6.82V16.45ZM25.6841 7.9C25.6841 7.06 25.6141 6.37 25.4741 5.83C25.3341 5.29 25.0441 4.87 24.6041 4.57C24.1641 4.25 23.5241 4.09 22.6841 4.09C21.8441 4.09 21.2041 4.24 20.7641 4.54C20.3241 4.84 20.0341 5.26 19.8941 5.8C19.7541 6.32 19.6841 7.01 19.6841 7.87V15.88C19.6841 16.84 19.9241 17.6 20.4041 18.16C20.9041 18.7 21.6641 18.97 22.6841 18.97C23.6241 18.97 24.3541 18.68 24.8741 18.1C25.4141 17.52 25.6841 16.76 25.6841 15.82V7.9ZM45.156 16.45C45.156 18.47 44.536 19.96 43.296 20.92C42.076 21.86 40.606 22.33 38.886 22.33C37.806 22.33 36.786 22.14 35.826 21.76C34.866 21.36 34.076 20.72 33.456 19.84C32.856 18.96 32.556 17.83 32.556 16.45V6.79C32.556 4.73 33.116 3.17 34.236 2.11C35.376 1.05 36.936 0.519999 38.916 0.519999C40.896 0.519999 42.426 1.08 43.506 2.2C44.606 3.32 45.156 4.86 45.156 6.82V16.45ZM41.856 7.9C41.856 7.06 41.786 6.37 41.646 5.83C41.506 5.29 41.216 4.87 40.776 4.57C40.336 4.25 39.696 4.09 38.856 4.09C38.016 4.09 37.376 4.24 36.936 4.54C36.496 4.84 36.206 5.26 36.066 5.8C35.926 6.32 35.856 7.01 35.856 7.87V15.88C35.856 16.84 36.096 17.6 36.576 18.16C37.076 18.7 37.836 18.97 38.856 18.97C39.796 18.97 40.526 18.68 41.046 18.1C41.586 17.52 41.856 16.76 41.856 15.82V7.9ZM53.2509 13.66L53.0409 13.96V22H49.5009V0.969999H53.0409V8.2L57.9009 0.969999H61.8609L55.2009 10.72L63.0309 22H58.9209L53.2509 13.66ZM67.7477 16.15C67.8477 17.03 68.2077 17.74 68.8277 18.28C69.4477 18.82 70.2577 19.09 71.2577 19.09C72.0977 19.09 72.7777 18.95 73.2977 18.67C73.8377 18.39 74.2277 18.05 74.4677 17.65C74.7077 17.25 74.8277 16.86 74.8277 16.48C74.8277 15.6 74.6077 14.87 74.1677 14.29C73.7477 13.69 73.2177 13.22 72.5777 12.88C71.9577 12.52 71.1077 12.11 70.0277 11.65C68.8477 11.15 67.9077 10.7 67.2077 10.3C66.5277 9.88 65.9377 9.32 65.4377 8.62C64.9577 7.9 64.7177 6.99 64.7177 5.89C64.7177 5.01 64.9677 4.18 65.4677 3.4C65.9677 2.6 66.7277 1.95 67.7477 1.45C68.7677 0.949999 70.0177 0.699999 71.4977 0.699999C72.4777 0.699999 73.2877 0.769999 73.9277 0.91C74.5677 1.05 75.2177 1.28 75.8777 1.6L74.8277 4.72C74.1077 4.48 73.5177 4.31 73.0577 4.21C72.6177 4.11 72.1077 4.06 71.5277 4.06C70.3877 4.06 69.5477 4.26 69.0077 4.66C68.4677 5.06 68.2277 5.57 68.2877 6.19C68.3477 6.69 68.6477 7.12 69.1877 7.48C69.7477 7.84 70.6077 8.28 71.7677 8.8C73.1277 9.4 74.2577 9.97 75.1577 10.51C76.0577 11.05 76.8277 11.79 77.4677 12.73C78.1277 13.67 78.4577 14.82 78.4577 16.18C78.4577 17.96 77.8677 19.43 76.6877 20.59C75.5077 21.75 73.7077 22.33 71.2877 22.33C69.8077 22.33 68.5377 22.06 67.4777 21.52C66.4377 20.96 65.6377 20.25 65.0777 19.39C64.5377 18.51 64.2477 17.6 64.2077 16.66L67.7477 16.15ZM89.1241 20.05C89.7841 19.97 90.3241 19.72 90.7441 19.3C91.1641 18.88 91.3741 18.14 91.3741 17.08V15.4C90.3741 15.9 89.3241 16.15 88.2241 16.15C86.8641 16.15 85.6641 15.89 84.6241 15.37C83.5841 14.83 82.7741 14.07 82.1941 13.09C81.6341 12.09 81.3541 10.93 81.3541 9.61V0.999999H84.6541V9.31C84.6541 10.55 84.9541 11.46 85.5541 12.04C86.1541 12.62 87.0441 12.91 88.2241 12.91C88.8841 12.91 89.4241 12.84 89.8441 12.7C90.2841 12.56 90.5841 12.42 90.7441 12.28C90.9241 12.14 91.1341 11.95 91.3741 11.71V0.999999H94.6741V17.32C94.6741 18.9 94.3341 20.13 93.6541 21.01C92.9741 21.89 91.8141 22.41 90.1741 22.57L89.1241 20.05ZM99.857 16.15C99.957 17.03 100.317 17.74 100.937 18.28C101.557 18.82 102.367 19.09 103.367 19.09C104.207 19.09 104.887 18.95 105.407 18.67C105.947 18.39 106.337 18.05 106.577 17.65C106.817 17.25 106.937 16.86 106.937 16.48C106.937 15.6 106.717 14.87 106.277 14.29C105.857 13.69 105.327 13.22 104.687 12.88C104.067 12.52 103.217 12.11 102.137 11.65C100.957 11.15 100.017 10.7 99.317 10.3C98.637 9.88 98.047 9.32 97.547 8.62C97.067 7.9 96.827 6.99 96.827 5.89C96.827 5.01 97.077 4.18 97.577 3.4C98.077 2.6 98.837 1.95 99.857 1.45C100.877 0.949999 102.127 0.699999 103.607 0.699999C104.587 0.699999 105.397 0.769999 106.037 0.91C106.677 1.05 107.327 1.28 107.987 1.6L106.937 4.72C106.217 4.48 105.627 4.31 105.167 4.21C104.727 4.11 104.217 4.06 103.637 4.06C102.497 4.06 101.657 4.26 101.117 4.66C100.577 5.06 100.337 5.57 100.397 6.19C100.457 6.69 100.757 7.12 101.297 7.48C101.857 7.84 102.717 8.28 103.877 8.8C105.237 9.4 106.367 9.97 107.267 10.51C108.167 11.05 108.937 11.79 109.577 12.73C110.237 13.67 110.567 14.82 110.567 16.18C110.567 17.96 109.977 19.43 108.797 20.59C107.617 21.75 105.817 22.33 103.397 22.33C101.917 22.33 100.647 22.06 99.587 21.52C98.547 20.96 97.747 20.25 97.187 19.39C96.647 18.51 96.357 17.6 96.317 16.66L99.857 16.15Z" fill="white"/>
</svg>
